<svg width="21" height="21" viewBox="0 0 21 21" fill="none" xmlns="http://www.w3.org/2000/svg">
<g clip-path="url(#clip0_9_71)">
<path d="M10.3053 0.00012207C4.61417 0.00012207 0 4.61429 0 10.3054C0 15.9965 4.61417 20.6106 10.3053 20.6106C15.9964 20.6106 20.6105 15.9965 20.6105 10.3054C20.6105 4.61429 15.9964 0.00012207 10.3053 0.00012207ZM15.0228 14.8802C14.896 15.0906 14.672 15.2076 14.4431 15.2076C14.3237 15.2076 14.2031 15.1768 14.0948 15.1103C10.0357 12.6697 5.22586 14.0814 5.17786 14.0962C4.81971 14.2045 4.44186 14.0026 4.33355 13.6457C4.22524 13.2875 4.42586 12.9097 4.78278 12.8014C5.00186 12.7337 10.2068 11.1928 14.7927 13.9509C15.1127 14.1429 15.216 14.5589 15.0228 14.8802ZM16.3028 12.0272C16.1551 12.2845 15.8856 12.4285 15.6087 12.4285C15.4733 12.4285 15.3367 12.394 15.2111 12.3214C10.1133 9.38969 4.97725 11.0968 4.92555 11.114C4.50832 11.258 4.05294 11.0352 3.90893 10.6168C3.76617 10.1995 3.98894 9.74415 4.40617 9.60138C4.64371 9.52015 10.288 7.64568 16.0087 10.9343C16.3914 11.1546 16.5231 11.6445 16.3028 12.0272V12.0272ZM16.8751 9.27523C16.7213 9.27523 16.565 9.2383 16.4185 9.162C10.5416 6.07522 4.50586 7.92261 4.44555 7.9423C3.92617 8.10599 3.37355 7.81799 3.20986 7.29984C3.04616 6.78045 3.33416 6.22783 3.85232 6.06414C4.13047 5.97676 10.7385 3.9546 17.3342 7.41799C17.8154 7.67153 18.0013 8.26599 17.7477 8.74723C17.5717 9.08323 17.2296 9.27523 16.8751 9.27523V9.27523Z" fill="#AEAEAE"/>
</g>
<defs>
<clipPath id="clip0_9_71">
<rect width="20.6105" height="20.6105" fill="white"/>
</clipPath>
</defs>
</svg>
